<svg width="146" height="70" viewBox="0 0 146 70" fill="none" xmlns="http://www.w3.org/2000/svg">
<path d="M0.182901 30L10.1623 1.07142H16.9964L26.9758 30H21.2289L19.1709 23.7871H7.98779L5.89096 30H0.182901ZM9.50218 19.1275H17.6565L12.8416 4.72147H14.3171L9.50218 19.1275ZM30.1954 30V1.07142H40.9514C42.9188 1.07142 44.6532 1.43383 46.1547 2.15867C47.682 2.85761 48.8728 3.89309 49.727 5.26509C50.5813 6.61121 51.0084 8.25502 51.0084 10.1965C51.0084 12.1898 50.5295 13.8854 49.5717 15.2833C48.6398 16.6812 47.3713 17.7167 45.7664 18.3897L52.4063 30H46.4265L39.3205 17.3025L42.7376 19.3217H35.4763V30H30.1954ZM35.4763 14.662H41.0291C41.9869 14.662 42.8152 14.4808 43.5142 14.1184C44.2131 13.7301 44.7568 13.1994 45.1451 12.5264C45.5334 11.8533 45.7275 11.0767 45.7275 10.1965C45.7275 9.2905 45.5334 8.51389 45.1451 7.86672C44.7568 7.19366 44.2131 6.67593 43.5142 6.31351C42.8152 5.92521 41.9869 5.73106 41.0291 5.73106H35.4763V14.662ZM55.8674 30V1.07142H61.1483V16.1376L59.7116 15.6328L72.0208 1.07142H78.6608L67.1282 14.7397L67.4388 11.012L79.0103 30H72.7974L65.0313 17.2637L61.1483 21.8845V30H55.8674ZM95.2971 30.466C93.1744 30.466 91.1941 30.0906 89.3561 29.3399C87.5181 28.5892 85.9131 27.5407 84.5411 26.1946C83.1691 24.8485 82.0948 23.2694 81.3182 21.4573C80.5675 19.6194 80.1921 17.639 80.1921 15.5163C80.1921 13.3677 80.5675 11.3873 81.3182 9.57526C82.0689 7.76317 83.1303 6.18408 84.5023 4.83796C85.8743 3.49184 87.4793 2.45636 89.3173 1.73153C91.1552 0.980813 93.1485 0.605454 95.2971 0.605454C97.4458 0.605454 99.439 0.980813 101.277 1.73153C103.115 2.48225 104.72 3.53067 106.092 4.87679C107.464 6.19702 108.525 7.76317 109.276 9.57526C110.053 11.3873 110.441 13.3677 110.441 15.5163C110.441 17.639 110.053 19.6194 109.276 21.4573C108.499 23.2694 107.425 24.8485 106.053 26.1946C104.681 27.5407 103.076 28.5892 101.238 29.3399C99.4261 30.0906 97.4458 30.466 95.2971 30.466ZM95.2971 25.651C96.7209 25.651 98.0282 25.4051 99.219 24.9132C100.41 24.3955 101.445 23.6836 102.325 22.7776C103.231 21.8715 103.917 20.7972 104.383 19.5546C104.875 18.3121 105.121 16.966 105.121 15.5163C105.121 14.0666 104.875 12.7335 104.383 11.5168C103.917 10.2742 103.231 9.1999 102.325 8.29386C101.445 7.36193 100.41 6.65004 99.219 6.15819C98.0282 5.66634 96.7209 5.42041 95.2971 5.42041C93.8992 5.42041 92.6049 5.66634 91.4141 6.15819C90.2233 6.65004 89.1749 7.36193 88.2689 8.29386C87.3887 9.1999 86.7027 10.2742 86.2108 11.5168C85.719 12.7335 85.4731 14.0666 85.4731 15.5163C85.4731 16.966 85.719 18.3121 86.2108 19.5546C86.7027 20.7972 87.3887 21.8715 88.2689 22.7776C89.1749 23.6836 90.2233 24.3955 91.4141 24.9132C92.6049 25.4051 93.8992 25.651 95.2971 25.651ZM115.137 30V1.07142H120.185L131.018 15.7881H128.611L139.211 1.07142H144.259V30H138.94V7.09012L140.998 7.59491L130.009 22.2339H129.387L118.67 7.59491L120.418 7.09012V30H115.137ZM6.59567 69V40.0714H15.8373C18.6331 40.0714 21.0535 40.6668 23.0985 41.8576C25.1436 43.0225 26.7227 44.6922 27.8358 46.8667C28.949 49.0153 29.5055 51.5652 29.5055 54.5163C29.5055 57.4415 28.949 59.9914 27.8358 62.1659C26.7227 64.3404 25.1436 66.023 23.0985 67.2138C21.0535 68.4046 18.6331 69 15.8373 69H6.59567ZM8.53718 67.2526H15.7596C18.1153 67.2526 20.1733 66.722 21.9336 65.6606C23.7198 64.5992 25.1048 63.1107 26.0885 61.1951C27.0722 59.2795 27.564 57.0532 27.564 54.5163C27.564 51.9794 27.0722 49.7661 26.0885 47.8763C25.1048 45.9607 23.7198 44.4722 21.9336 43.4108C20.1733 42.3495 18.1153 41.8188 15.7596 41.8188H8.53718V67.2526ZM35.4909 69V40.0714H37.4324V69H35.4909ZM58.0919 69.466C56.0728 69.466 54.2219 69.1035 52.5392 68.3787C50.8566 67.628 49.394 66.5925 48.1514 65.2723C46.9088 63.9262 45.951 62.3471 45.2779 60.535C44.6049 58.7229 44.2683 56.7296 44.2683 54.5551C44.2683 52.3806 44.6049 50.3873 45.2779 48.5753C45.9769 46.7632 46.9476 45.1841 48.1902 43.838C49.4328 42.4918 50.8954 41.4564 52.578 40.7315C54.2607 39.9808 56.1116 39.6055 58.1308 39.6055C60.1241 39.6055 61.9103 39.9679 63.4894 40.6927C65.0685 41.3916 66.3887 42.2847 67.45 43.372C68.5114 44.4334 69.2751 45.5206 69.741 46.6337L67.916 47.4492C67.0617 45.6371 65.7933 44.1874 64.1106 43.1002C62.4539 42.0129 60.4606 41.4693 58.1308 41.4693C55.8268 41.4693 53.7688 42.0259 51.9568 43.139C50.1706 44.2263 48.7597 45.7536 47.7242 47.721C46.7147 49.6884 46.2099 51.9664 46.2099 54.5551C46.2099 57.1438 46.7147 59.4219 47.7242 61.3893C48.7597 63.3567 50.1706 64.884 51.9568 65.9712C53.7429 67.0585 55.788 67.6021 58.0919 67.6021C60.2147 67.6021 62.1044 67.1232 63.7612 66.1654C65.4179 65.2076 66.7252 63.9003 67.683 62.2435C68.6408 60.5868 69.1197 58.71 69.1197 56.6131V55.4482L69.974 56.4578H58.1308V54.7104H71.0613V56.6131C71.0613 58.3476 70.7377 59.9914 70.0905 61.5446C69.4692 63.0978 68.5761 64.4698 67.4112 65.6606C66.2722 66.8514 64.9131 67.7833 63.334 68.4564C61.7549 69.1294 60.0076 69.466 58.0919 69.466ZM77.5065 69V40.0714H79.448V69H77.5065ZM92.3415 69V41.8188H84.1483V40.0714H102.399V41.8188H94.283V69H92.3415ZM102.16 69L112.878 40.0714H114.741L125.459 69H123.323L120.527 61.3504H107.092L104.296 69H102.16ZM107.713 59.6031H119.906L113.344 41.6635H114.275L107.713 59.6031ZM130.14 69V40.0714H132.081V67.2526H145.284V69H130.14Z" fill="white"/>
</svg>
